<?xml version="1.0" encoding="utf-8"?>
<!-- Generator: Adobe Illustrator 16.0.0, SVG Export Plug-In . SVG Version: 6.00 Build 0)  -->
<!DOCTYPE svg PUBLIC "-//W3C//DTD SVG 1.1//EN" "http://www.w3.org/Graphics/SVG/1.1/DTD/svg11.dtd">
<svg version="1.1" id="Layer_1" xmlns="http://www.w3.org/2000/svg" xmlns:xlink="http://www.w3.org/1999/xlink" x="0px" y="0px"
	 width="1280px" height="800px" viewBox="0 0 1280 800" enable-background="new 0 0 1280 800" xml:space="preserve">
<g>
	<g id="XMLID_3_">
		<g>
			<path fill="#243A45" d="M641.596,434.838c7.655,0.601,14.694-2.018,18.129-9.087c3.343-6.916,5.129-14.586,8.01-23.15
				c-14.34,0-26.678-0.077-39.015,0.154c-0.939,0.016-2.695,2.311-2.619,3.45c0.385,5.545,0.601,11.244,2.157,16.512
				C630.137,429.093,634.311,434.284,641.596,434.838z M660.295,386.659c7.146,0,14.278,0,22.733,0
				c-0.77,9.658-0.831,18.406-2.371,26.878c-1.232,6.73-3.436,13.585-6.716,19.545c-7.285,13.246-19.546,18.622-34.225,17.344
				c-14.231-1.232-22.441-10.551-26.862-23.351c-3.943-11.49-3.111-23.211-0.847-34.979c0.801-4.158,2.542-5.637,6.947-5.544
				C632.724,386.844,646.51,386.659,660.295,386.659z"/>
			<path fill="#243A45" d="M618.061,307.953c0.847,11.521,3.481,22.904,5.175,34.363c0.493,3.343,2.018,4.56,5.391,4.436
				c6.007-0.215,12.029-0.062,18.051-0.062c6.007,0,12.045,0.308,18.036-0.169c1.88-0.154,4.652-2.002,5.237-3.697
				c8.024-23.581,5.329-46.469-5.776-68.433c-2.141-4.205-5.406-8.117-8.948-11.29c-9.827-8.856-22.95-6.607-29.558,4.96
				C618.6,280.429,617.044,294.167,618.061,307.953z M611.038,358.658c-4.713-18.19-8.764-36.504-8.949-53.2
				c0.062-19.484,3.296-34.055,9.457-44.852c11.429-20.008,35.456-24.89,53.23-10.15c5.392,4.451,10.197,10.366,13.385,16.558
				c15.511,30.081,16.034,60.932,2.865,92.014c-0.632,1.448-3.019,3.05-4.605,3.065c-20.208,0.2-40.416,0.216-60.624-0.015
				C614.133,362.062,611.438,360.152,611.038,358.658z"/>
			<path fill="#243A45" d="M562.166,386.659c-0.015,0.169-0.031,0.339-0.046,0.508c-0.093,0.077-0.185,0.169-0.277,0.262
				c-0.385-0.154-0.786-0.277-1.202-0.354c-0.046-0.139-0.108-0.277-0.154-0.416C561.041,386.659,561.611,386.659,562.166,386.659z"
				/>
			<path fill="#243A45" d="M558.392,253.428c-0.092,0.816-0.185,1.632-0.277,2.449c-0.062,0.2-0.108,0.4-0.154,0.601
				c-0.062-0.847-0.093-1.709-0.108-2.587C558.038,253.736,558.207,253.582,558.392,253.428z"/>
			<path fill="#243A45" d="M537.075,448.639c0.123,0.509,0.231,1.001,0.354,1.51c-0.231-0.046-0.462-0.108-0.693-0.154
				C536.844,449.563,536.967,449.086,537.075,448.639z"/>
		</g>
		<g>
		</g>
	</g>
</g>
<text transform="matrix(1 0 0 1 125.3804 409.3232)" fill="#243A45" font-family="'Montserrat-Regular'" font-size="154.6605">SHOE</text>
<text transform="matrix(1 0 0 1 739.7598 396.2363)" fill="#243A45" font-family="'Montserrat-Regular'" font-size="147.8959">SHOP</text>
</svg>
